<?xml version="1.0" encoding="UTF-8" standalone="no"?>
<!-- Generator: Adobe Illustrator 20.0.0, SVG Export Plug-In . SVG Version: 6.00 Build 0)  -->

<svg
   xmlns:dc="http://purl.org/dc/elements/1.1/"
   xmlns:cc="http://creativecommons.org/ns#"
   xmlns:rdf="http://www.w3.org/1999/02/22-rdf-syntax-ns#"
   xmlns:svg="http://www.w3.org/2000/svg"
   xmlns="http://www.w3.org/2000/svg"
   xmlns:sodipodi="http://sodipodi.sourceforge.net/DTD/sodipodi-0.dtd"
   xmlns:inkscape="http://www.inkscape.org/namespaces/inkscape"
   version="1.1"
   id="Layer_1"
   x="0px"
   y="0px"
   viewBox="0 0 221.79999 191.2"
   xml:space="preserve"
   inkscape:version="0.91 r13725"
   sodipodi:docname="Dell EMC Logo vertical_web_RGB.svg"
   width="221.8"
   height="191.2"><metadata
     id="metadata41"><rdf:RDF><cc:Work
         rdf:about=""><dc:format>image/svg+xml</dc:format><dc:type
           rdf:resource="http://purl.org/dc/dcmitype/StillImage" /><dc:title></dc:title></cc:Work></rdf:RDF></metadata><defs
     id="defs39" /><sodipodi:namedview
     pagecolor="#ffffff"
     bordercolor="#666666"
     borderopacity="1"
     objecttolerance="10"
     gridtolerance="10"
     guidetolerance="10"
     inkscape:pageopacity="0"
     inkscape:pageshadow="2"
     inkscape:window-width="1008"
     inkscape:window-height="940"
     id="namedview37"
     showgrid="true"
     inkscape:zoom="0.67933219"
     inkscape:cx="39.465538"
     inkscape:cy="213.36271"
     inkscape:window-x="430"
     inkscape:window-y="27"
     inkscape:window-maximized="0"
     inkscape:current-layer="Layer_1"
     fit-margin-top="0"
     fit-margin-left="0"
     fit-margin-right="0"
     fit-margin-bottom="0"><inkscape:grid
       type="xygrid"
       id="grid3388"
       originx="-37.200012"
       originy="-78.099995" /></sodipodi:namedview><style
     type="text/css"
     id="style3">
	.st0{fill:#808080;}
	.st1{fill:#057DB7;}
</style><g
     id="g5"
     transform="translate(-37.100008,0)"><g
       id="g7"><path
         class="st0"
         d="m 165.8,137.3 c -22,0 -39.9,-17.9 -39.9,-39.9 0,-22 17.9,-39.9 39.9,-39.9 14.4,0 27.1,7.7 34.1,19.2 l 20.8,0 c -8.4,-22.2 -29.8,-38 -54.9,-38 -12.8,0 -24.6,4.2 -34.2,11.1 L 81.7,0 76.6,5.1 C 76,5.5 75.4,5.9 74.9,6.4 73.6,7.7 72.4,9.1 71.2,10.5 l -2.8,2.8 0.1,0.1 c -20.2,23.4 -31.4,52.8 -31.4,84 0,34.4 13.4,66.7 37.7,91 1.8,1.8 4.2,2.8 6.6,2.8 2.4,0 4.8,-0.9 6.7,-2.8 3.7,-3.7 3.7,-9.6 0,-13.3 C 67.4,154.4 56,126.8 56,97.4 56,71.2 65.1,46.5 81.9,26.7 l 11.9,11.9 c -13.1,16 -21,36.5 -21,58.8 0,51.3 41.8,93.1 93.1,93.1 5.2,0 9.4,-4.2 9.4,-9.4 0,-5.2 -4.2,-9.4 -9.4,-9.4 -41,0 -74.3,-33.3 -74.3,-74.3 0,-17.1 5.9,-32.8 15.6,-45.4 l 11.1,11.1 c -7,9.7 -11.1,21.5 -11.1,34.2 0,32.3 26.3,58.7 58.7,58.7 25.1,0 46.5,-15.8 54.9,-38 l -20.8,0 c -7.1,11.6 -19.8,19.3 -34.2,19.3 z"
         id="path9"
         inkscape:connector-curvature="0"
         style="fill:#808080" /><g
         id="g11"><path
           class="st1"
           d="m 258.9,97.4 c 0,-51.3 -41.8,-93.1 -93.1,-93.1 -20.6,0 -39.6,6.7 -55.1,18.1 l 13.5,13.5 c 11.9,-8 26.2,-12.8 41.6,-12.8 37.8,0 69.1,28.3 73.7,64.9 l -51.7,0 c -3.7,-8.5 -12.1,-14.5 -22,-14.5 -13.2,0 -23.9,10.7 -23.9,23.9 0,13.2 10.7,23.9 23.9,23.9 9.9,0 18.3,-6 22,-14.5 l 71.1,0 0,-9.4 z"
           id="path13"
           inkscape:connector-curvature="0"
           style="fill:#057db7" /></g></g></g></svg>