<?xml version="1.0" encoding="UTF-8" standalone="no"?>
<!-- Generator: Adobe Illustrator 14.0.0, SVG Export Plug-In . SVG Version: 6.00 Build 43363)  -->

<svg
   xmlns:dc="http://purl.org/dc/elements/1.1/"
   xmlns:cc="http://creativecommons.org/ns#"
   xmlns:rdf="http://www.w3.org/1999/02/22-rdf-syntax-ns#"
   xmlns:svg="http://www.w3.org/2000/svg"
   xmlns="http://www.w3.org/2000/svg"
   xmlns:sodipodi="http://sodipodi.sourceforge.net/DTD/sodipodi-0.dtd"
   xmlns:inkscape="http://www.inkscape.org/namespaces/inkscape"
   version="1.1"
   id="Layer_1"
   x="0px"
   y="0px"
   width="841.89px"
   height="595.28px"
   viewBox="0 0 841.89 595.28"
   enable-background="new 0 0 841.89 595.28"
   xml:space="preserve"
   inkscape:version="0.91 r13725"
   sodipodi:docname="emc-code.svg"><metadata
     id="metadata23"><rdf:RDF><cc:Work
         rdf:about=""><dc:format>image/svg+xml</dc:format><dc:type
           rdf:resource="http://purl.org/dc/dcmitype/StillImage" /></cc:Work></rdf:RDF></metadata><defs
     id="defs21" /><sodipodi:namedview
     pagecolor="#ffffff"
     bordercolor="#666666"
     borderopacity="1"
     objecttolerance="10"
     gridtolerance="10"
     guidetolerance="10"
     inkscape:pageopacity="0"
     inkscape:pageshadow="2"
     inkscape:window-width="1993"
     inkscape:window-height="999"
     id="namedview19"
     showgrid="false"
     inkscape:zoom="1.1959767"
     inkscape:cx="382.21601"
     inkscape:cy="306.80914"
     inkscape:window-x="274"
     inkscape:window-y="237"
     inkscape:window-maximized="0"
     inkscape:current-layer="Layer_1" /><g
     id="g3"
     transform="matrix(2,0,0,2,-417.53699,-191.77499)"><g
       id="g5"><g
         id="g7"><g
           id="g9"><path
             d="m 444.312,303.55 c -31.008,0 -56.236,-25.224 -56.236,-56.228 0,-31.009 25.229,-56.225 56.236,-56.225 20.334,0 38.182,10.842 48.057,27.056 l 29.371,0 c -11.818,-31.272 -42.061,-53.58 -77.428,-53.58 -18.037,0 -34.691,5.868 -48.307,15.693 l -70.342,-70.353 -7.248,7.244 c -0.842,0.523 -1.664,1.128 -2.398,1.87 -1.844,1.845 -3.475,3.847 -5.221,5.753 l -3.887,3.887 0.18,0.19 c -28.521,32.939 -44.219,74.458 -44.219,118.464 0,48.46 18.867,94.026 53.146,128.302 2.586,2.582 5.98,3.879 9.373,3.879 3.395,0 6.789,-1.297 9.381,-3.879 5.174,-5.177 5.174,-13.583 0,-18.753 -29.27,-29.256 -45.381,-68.162 -45.381,-109.549 0,-36.923 12.898,-71.824 36.461,-99.72 l 16.836,16.847 c -18.49,22.625 -29.668,51.443 -29.668,82.873 0,72.392 58.898,131.291 131.293,131.291 7.32,0 13.252,-5.938 13.252,-13.264 0,-7.318 -5.932,-13.257 -13.252,-13.257 -57.768,0 -104.764,-46.995 -104.764,-104.771 0,-24.112 8.287,-46.259 22.033,-63.987 l 15.68,15.686 c -9.826,13.611 -15.697,30.26 -15.697,48.302 0,45.619 37.119,82.742 82.748,82.742 35.367,0 65.609,-22.307 77.428,-53.579 l -29.371,0 c -9.875,16.213 -27.722,27.066 -48.056,27.066 z"
             id="path11"
             inkscape:connector-curvature="0"
             style="fill:#8a8e90" /></g><g
           id="g13"><path
             d="m 575.612,247.322 c 0,-72.396 -58.904,-131.297 -131.301,-131.297 -29.031,0 -55.906,9.488 -77.658,25.507 l 19.01,19.004 c 16.742,-11.353 36.938,-17.992 58.648,-17.992 53.295,0 97.416,39.982 103.947,91.516 l -72.971,0 c -5.156,-12.017 -17.074,-20.434 -30.977,-20.434 -18.605,0 -33.695,15.08 -33.695,33.694 0,18.605 15.09,33.69 33.695,33.69 13.902,0 25.82,-8.426 30.977,-20.436 l 100.324,0 0,-13.252 z"
             id="path15"
             inkscape:connector-curvature="0"
             style="fill:#3a92d0" /></g></g></g></g></svg>