<?xml version="1.0" encoding="UTF-8" standalone="no"?>
<!-- Generator: Adobe Illustrator 14.0.0, SVG Export Plug-In . SVG Version: 6.00 Build 43363)  -->

<svg
   xmlns:dc="http://purl.org/dc/elements/1.1/"
   xmlns:cc="http://creativecommons.org/ns#"
   xmlns:rdf="http://www.w3.org/1999/02/22-rdf-syntax-ns#"
   xmlns:svg="http://www.w3.org/2000/svg"
   xmlns="http://www.w3.org/2000/svg"
   xmlns:sodipodi="http://sodipodi.sourceforge.net/DTD/sodipodi-0.dtd"
   xmlns:inkscape="http://www.inkscape.org/namespaces/inkscape"
   version="1.1"
   id="Layer_1"
   x="0px"
   y="0px"
   width="841.89px"
   height="595.28px"
   viewBox="0 0 841.89 595.28"
   enable-background="new 0 0 841.89 595.28"
   xml:space="preserve"
   inkscape:version="0.91 r13725"
   sodipodi:docname="emc-code-text.svg"><metadata
     id="metadata23"><rdf:RDF><cc:Work
         rdf:about=""><dc:format>image/svg+xml</dc:format><dc:type
           rdf:resource="http://purl.org/dc/dcmitype/StillImage" /></cc:Work></rdf:RDF></metadata><defs
     id="defs21" /><sodipodi:namedview
     pagecolor="#ffffff"
     bordercolor="#666666"
     borderopacity="1"
     objecttolerance="10"
     gridtolerance="10"
     guidetolerance="10"
     inkscape:pageopacity="0"
     inkscape:pageshadow="2"
     inkscape:window-width="1443"
     inkscape:window-height="1055"
     id="namedview19"
     showgrid="false"
     inkscape:zoom="0.32545819"
     inkscape:cx="-107.5407"
     inkscape:cy="297.64001"
     inkscape:window-x="20"
     inkscape:window-y="43"
     inkscape:window-maximized="0"
     inkscape:current-layer="Layer_1" /><g
     id="g3"
     transform="matrix(1.5,0,0,1.5,-210.47225,-148.82025)"><g
       id="g5"><g
         id="g7"><g
           id="g9"><path
             d="m 444.312,303.55 c -31.008,0 -56.236,-25.224 -56.236,-56.228 0,-31.009 25.229,-56.225 56.236,-56.225 20.334,0 38.182,10.842 48.057,27.056 l 29.371,0 c -11.818,-31.272 -42.061,-53.58 -77.428,-53.58 -18.037,0 -34.691,5.868 -48.307,15.693 l -70.342,-70.353 -7.248,7.244 c -0.842,0.523 -1.664,1.128 -2.398,1.87 -1.844,1.845 -3.475,3.847 -5.221,5.753 l -3.887,3.887 0.18,0.19 c -28.521,32.939 -44.219,74.458 -44.219,118.464 0,48.46 18.867,94.026 53.146,128.302 2.586,2.582 5.98,3.879 9.373,3.879 3.395,0 6.789,-1.297 9.381,-3.879 5.174,-5.177 5.174,-13.583 0,-18.753 -29.27,-29.256 -45.381,-68.162 -45.381,-109.549 0,-36.923 12.898,-71.824 36.461,-99.72 l 16.836,16.847 c -18.49,22.625 -29.668,51.443 -29.668,82.873 0,72.392 58.898,131.291 131.293,131.291 7.32,0 13.252,-5.938 13.252,-13.264 0,-7.318 -5.932,-13.257 -13.252,-13.257 -57.768,0 -104.764,-46.995 -104.764,-104.771 0,-24.112 8.287,-46.259 22.033,-63.987 l 15.68,15.686 c -9.826,13.611 -15.697,30.26 -15.697,48.302 0,45.619 37.119,82.742 82.748,82.742 35.367,0 65.609,-22.307 77.428,-53.579 l -29.371,0 c -9.875,16.213 -27.722,27.066 -48.056,27.066 z"
             id="path11"
             inkscape:connector-curvature="0"
             style="fill:#8a8e90" /></g><g
           id="g13"><path
             d="m 575.612,247.322 c 0,-72.396 -58.904,-131.297 -131.301,-131.297 -29.031,0 -55.906,9.488 -77.658,25.507 l 19.01,19.004 c 16.742,-11.353 36.938,-17.992 58.648,-17.992 53.295,0 97.416,39.982 103.947,91.516 l -72.971,0 c -5.156,-12.017 -17.074,-20.434 -30.977,-20.434 -18.605,0 -33.695,15.08 -33.695,33.694 0,18.605 15.09,33.69 33.695,33.69 13.902,0 25.82,-8.426 30.977,-20.436 l 100.324,0 0,-13.252 z"
             id="path15"
             inkscape:connector-curvature="0"
             style="fill:#3a92d0" /></g></g></g><path
       d="m 238.193,425.681 c 0,-7.849 4.962,-10.293 9.997,-10.07 0,0 22.216,1.036 23.548,1.185 l 0,5.479 -22.881,0 c -3.852,0 -3.852,2.147 -3.852,4.147 l 0,13.032 23.623,0.741 0,5.554 -23.623,0.74 0,13.033 c 0.074,3.925 2.444,3.851 4.592,3.851 l 22.141,0 0,5.405 c -1.185,0.148 -22.808,1.259 -22.808,1.259 -4.887,0.297 -10.737,-0.962 -10.737,-9.774 l 0,-34.582 z m 44.948,-10.071 9.404,0 12.959,42.875 12.663,-42.875 9.33,0 4.369,54.205 -6.738,0 -3.406,-42.061 -12.515,42.061 -7.258,0 -12.885,-42.061 -3.036,42.061 -6.813,0 3.926,-54.205 z m 73.753,-0.592 c 4.888,0 12.885,0.814 18.29,2 l 0,5.405 c -0.073,0 -10.737,-0.814 -17.624,-0.814 -8.812,0 -12.07,3.555 -12.07,21.104 0,12.145 2.592,20.956 12.07,20.956 7.775,0 17.624,-0.519 17.624,-0.519 l 0,5.332 c -5.109,1.111 -13.402,1.777 -18.29,1.777 -13.699,0 -18.217,-11.404 -18.217,-27.695 0,-17.328 3.48,-27.546 18.217,-27.546 z m 42.058,27.251 c 2.443,-0.223 6.294,-0.296 6.294,-3.925 l 0,-17.105 c 0,-7.405 4.443,-13.773 14.662,-13.773 l 0,6.368 c -4.443,0 -7.85,1.555 -7.85,8.294 l 0,16.365 c 0,3.851 -2.739,5.998 -6.517,6.59 3.777,0.593 6.442,3.11 6.442,6.369 l 0,20.438 c 0,4.739 2.963,7.479 7.924,7.257 l 0,6.221 c -11.33,0 -14.736,-6.442 -14.736,-12.737 l 0,-20.733 c 0,-3.036 -3.258,-4.147 -6.22,-3.925 l 0,-5.704 z m 39.469,-12.145 c 3.85,0 11.625,0.74 17.18,2.073 l 0,4.592 c 0,0 -9.404,-0.444 -15.996,-0.444 -4.517,0 -7.331,0.74 -7.331,14.069 0,10.96 1.999,13.478 7.331,13.478 6.813,0 16.514,-0.741 16.514,-0.741 l 0,4.813 c -5.924,2 -11.551,2.147 -17.697,2.222 -7.332,0 -12.96,-3.11 -12.96,-20.067 -10e-4,-16.885 5.404,-19.995 12.959,-19.995 z m 40.652,0 c 13.328,0 17.477,4.962 17.477,20.586 0,14.588 -4.074,19.476 -17.477,19.476 -13.33,0 -17.477,-5.405 -17.477,-19.476 10e-4,-16.068 4.444,-20.586 17.477,-20.586 z m 0,33.768 c 7.404,0 10.664,-0.963 10.664,-13.182 0,-13.255 -2.666,-14.365 -10.664,-14.365 -7.701,0 -10.664,1.11 -10.664,14.365 0,12.293 3.629,13.182 10.664,13.182 z m 37.246,-33.99 c 3.332,0 9.404,1.036 13.848,2.888 l 0,-21.104 6.738,0 0,58.13 -5.184,0 -1.555,-4.295 c -2.072,1.629 -8.885,4.739 -13.848,4.739 -10.441,0 -12.885,-9.997 -12.885,-19.92 0.002,-10.737 1.779,-20.438 12.886,-20.438 z m 0.741,33.99 c 5.332,0 9.553,-1.629 13.107,-3.185 l 0,-22.808 c -4.518,-1.259 -7.998,-1.777 -13.107,-1.777 -4.295,0 -6.813,2.592 -6.813,14.144 0,9.331 2.443,13.626 6.813,13.626 z m 45.318,-33.694 c 9.848,0 15.477,0.963 15.477,13.995 0,6.072 -3.258,9.331 -10.367,9.331 l -15.477,0 c 0,8.664 1.926,10.441 7.701,10.441 6.59,0 11.848,0.073 17.402,-0.815 l 0,4.962 c -5.924,1.777 -12.811,2.073 -18.957,2.073 -9.998,0 -12.959,-5.109 -12.959,-20.216 0,-17.402 4.961,-19.771 17.18,-19.771 z m 4.369,17.328 c 2.961,0 4.295,-1.186 4.295,-3.406 0,-7.035 -1.26,-7.775 -8.441,-7.775 -7.629,0 -10.664,0.147 -10.59,11.182 l 14.736,0 z m 23.842,24.363 0,-20.438 c 0,-3.259 2.74,-5.776 6.443,-6.369 -3.703,-0.592 -6.518,-2.739 -6.518,-6.59 l 0,-16.365 c 0,-6.739 -3.406,-8.294 -7.775,-8.294 l 0,-6.368 c 10.145,0 14.588,6.368 14.588,13.773 l 0,17.105 c 0,3.629 3.926,3.702 6.369,3.925 l 0,5.702 c -2.963,-0.223 -6.295,0.889 -6.295,3.925 l 0,20.733 c 0,6.295 -3.332,12.737 -14.662,12.737 l 0,-6.221 c 4.887,0.224 7.85,-2.516 7.85,-7.255 z"
       id="path17"
       inkscape:connector-curvature="0"
       style="fill:#3a92d0" /></g></svg>